<?xml version="1.0" standalone="no"?>
<!DOCTYPE svg PUBLIC "-//W3C//DTD SVG 20010904//EN"
 "http://www.w3.org/TR/2001/REC-SVG-20010904/DTD/svg10.dtd">
<svg version="1.0" xmlns="http://www.w3.org/2000/svg"
 width="312.000000pt" height="255.000000pt" viewBox="0 0 312.000000 255.000000"
 preserveAspectRatio="xMidYMid meet">
<metadata>
Created by potrace 1.14, written by Peter Selinger 2001-2017
</metadata>
<g transform="translate(0.000000,255.000000) scale(0.100000,-0.100000)"
fill="#000000" stroke="none">
<path d="M0 1275 l0 -1275 1560 0 1560 0 0 1246 0 1246 -29 29 -29 29 -1531 0
-1531 0 0 -1275z m1414 721 c47 -35 67 -76 68 -135 1 -150 -169 -230 -283
-134 -88 75 -75 222 26 281 56 32 138 27 189 -12z m485 -5 c48 -25 95 -79 111
-126 19 -58 9 -146 -23 -194 -41 -61 -94 -92 -169 -98 -55 -4 -70 -1 -118 24
-161 85 -158 320 5 394 54 25 144 25 194 0z m-396 -364 c26 -15 47 -31 47 -36
0 -4 -23 -22 -51 -41 -52 -33 -97 -86 -119 -140 l-12 -30 -174 0 -174 0 0 63
c0 71 28 138 71 169 53 40 98 48 234 46 122 -3 133 -5 178 -31z m517 -118
c101 -46 150 -127 150 -251 l0 -78 -370 0 -370 0 0 83 c0 69 4 92 25 134 15
28 41 63 60 78 67 50 87 54 280 54 160 1 185 -2 225 -20z m235 -641 c38 -17
55 -58 55 -133 0 -75 -17 -116 -55 -133 -19 -9 -191 -12 -666 -12 -695 0 -682
-1 -707 55 -16 35 -15 154 2 184 28 51 15 50 703 51 477 0 649 -3 668 -12z"/>
</g>
</svg>
